<?xml version="1.0" encoding="UTF-8" standalone="no"?>
<!DOCTYPE svg PUBLIC "-//W3C//DTD SVG 1.1//EN" "http://www.w3.org/Graphics/SVG/1.1/DTD/svg11.dtd">
<svg version="1.1" xmlns="http://www.w3.org/2000/svg" xmlns:xlink="http://www.w3.org/1999/xlink" preserveAspectRatio="xMidYMid meet" viewBox="278.8141745786958 193.858849066164 66.07377830554685 65.99409112597135" width="62.07" height="61.99"><defs>
  <path d="M301.74 246.73C301.74 246.73 299.88 246.84 298.02 247.14C298.02 247.14 298.72 246.84 299.62 246.53C306.97 243.99 310.45 243.48 314.91 241.19C323.3 236.89 331.65 227.53 333.35 217.8C330.16 227.16 320.44 235.21 311.6 238.48C305.55 240.71 294.6 242.88 294.6 242.88C294.6 242.89 294.16 242.65 294.16 242.65C286.71 239.03 286.5 222.9 300.02 217.71C305.95 215.43 311.62 216.68 318.02 215.15C324.86 213.53 332.78 208.4 335.99 201.71C339.6 212.41 343.93 229.14 336.16 239.5C328.52 249.68 312.2 246.24 301.74 246.73ZM336.29 198.39C335.38 200.55 334.27 202.5 332.99 204.24C327.36 198.46 319.5 194.86 310.81 194.86C293.72 194.86 279.81 208.76 279.81 225.85C279.81 234.81 283.64 242.89 289.73 248.56C289.8 248.62 290.35 249.1 290.41 249.16C289.28 248.23 289.11 246.57 290.02 245.43C290.95 244.3 292.62 244.12 293.75 245.04C294.89 245.96 295.06 247.63 294.14 248.77C293.22 249.91 291.55 250.08 290.42 249.16C290.46 249.2 290.83 249.53 290.88 249.57C296.27 254.11 303.22 256.85 310.81 256.85C327.15 256.85 340.56 244.14 341.71 228.09C342.56 220.23 340.24 210.26 336.29 198.39" id="b27LnlRRHk"></path></defs><g>
  <g><use xlink:href="#b27LnlRRHk" opacity="1"></use></g>
</g></svg>
